<svg id="visual" viewBox="0 0 900 600" width="900" height="600" xmlns="http://www.w3.org/2000/svg" xmlns:xlink="http://www.w3.org/1999/xlink" version="1.1"><rect x="0" y="0" width="900" height="600" fill="#1E2529"></rect><path d="M0 492L16.7 478.3C33.3 464.7 66.7 437.3 100 427C133.3 416.7 166.7 423.3 200 426C233.3 428.7 266.7 427.3 300 421.5C333.3 415.7 366.7 405.3 400 404.8C433.3 404.3 466.7 413.7 500 414.5C533.3 415.3 566.7 407.7 600 415.7C633.3 423.7 666.7 447.3 700 446.5C733.3 445.7 766.7 420.3 800 422.7C833.3 425 866.7 455 883.3 470L900 485L900 601L883.3 601C866.7 601 833.3 601 800 601C766.7 601 733.3 601 700 601C666.7 601 633.3 601 600 601C566.7 601 533.3 601 500 601C466.7 601 433.3 601 400 601C366.7 601 333.3 601 300 601C266.7 601 233.3 601 200 601C166.7 601 133.3 601 100 601C66.7 601 33.3 601 16.7 601L0 601Z" fill="#009473" stroke-linecap="round" stroke-linejoin="miter"></path></svg>